# xmcd
#
# Track frame offsets: 
#        150
#        36789
#        48534
#        51450
#        60738
#        64113
#        77559
#        81771
#        95001
#        95514
#        106260
#        110688
#        122433
#        124863
#        136581
#        137229
#        146787
#        147192
#        156129
#        157101
#        165957
#        166902
#        176946
#        177864
#        188853
#        193524
#        204594
#        219201
#        232512
#        267153
#        276198
#        284946
#        295314
#        296043
#
# Disc length: 4346 seconds
#
# Revision: 0
# Processed by: cddbd v1.5.2PL0 Copyright (c) Steve Scherf et al.
# Submitted via: ExactAudioCopy v0.95b3
#
DISCID=0410f822
DTITLE=The Beatles  - The Days In Their Life - Vol.08  FLAC
DYEAR=1900
DGENRE=
TTITLE0=Narrative
TTITLE1=Taxman
TTITLE2=Narrative
TTITLE3=Eleanor Rigby
TTITLE4=Narrative
TTITLE5=I'm Only Sleeping
TTITLE6=Narrative
TTITLE7=Love You To
TTITLE8=Narrative
TTITLE9=There And Everywhere
TTITLE10=Narrative
TTITLE11=Yellow Submarine
TTITLE12=Narrative
TTITLE13=She Said She Said
TTITLE14=Narrative
TTITLE15=Good Day Sunshine
TTITLE16=Narrative
TTITLE17=And Your Bird Can Sing
TTITLE18=Narrative
TTITLE19=For No One
TTITLE20=Narrative
TTITLE21=Doctor Robert
TTITLE22=Narrative
TTITLE23=I Want To Tell You
TTITLE24=Narrative
TTITLE25=Got To Get You Into My Life
TTITLE26=Narrative
TTITLE27=Tomorrow Never Knows
TTITLE28=Narrative
TTITLE29=The Family Way
TTITLE30=Narrative
TTITLE31=Bad Boy
TTITLE32=Narrative
TTITLE33=1966 Christmas Message
EXTD=
EXTT0=
EXTT1=
EXTT2=
EXTT3=
EXTT4=
EXTT5=
EXTT6=
EXTT7=
EXTT8=
EXTT9=
EXTT10=
EXTT11=
EXTT12=
EXTT13=
EXTT14=
EXTT15=
EXTT16=
EXTT17=
EXTT18=
EXTT19=
EXTT20=
EXTT21=
EXTT22=
EXTT23=
EXTT24=
EXTT25=
EXTT26=
EXTT27=
EXTT28=
EXTT29=
EXTT30=
EXTT31=
EXTT32=
EXTT33=
PLAYORDER=
